<svg xmlns="http://www.w3.org/2000/svg" width="194" height="194" viewBox="0 0 194 194"><path fill="#69a9ec" d="M0 0v194h194V0zm187.74 187.74H6.26V31.3h181.48zm0-162.7H6.26V6.25h181.48zM19 19v-6h-6v6zm12 0v-6h-6v6zm13 0v-6h-6v6zm137.48 34.2H12.52v112.64h168.96zm-6.25 106.38H18.77V59.45h156.46zm-6.26-87.61H87.6v31.29h81.36zM162.7 97H93.87V78.23h68.84zM156 91v-7h-6v7zm-12 0v-7h-6v7zm-13 0v-7h-6v7zm-12 0v-7h-6v7zm-13 0v-7h-6v7zm62.97 24.77H87.6v31.3h81.36zm-6.26 25.04H93.87v-18.78h68.84zM156 135v-7h-6v7zm-12 0v-7h-6v7zm-13 0v-7h-6v7zm-12 0v-7h-6v7zm-13 0v-7h-6v7zm-30.9-9.84c0-8.17-4.5-15.29-11.15-19.06A18.76 18.76 0 0 0 53.2 71.97a18.76 18.76 0 1 0-10.76 34.14 21.9 21.9 0 0 0-11.14 19.05v21.9h43.8zM40.68 90.74a12.53 12.53 0 0 1 25.03 0 12.53 12.53 0 0 1-25.03 0zm28.16 50.07h-31.3v-15.65c0-8.62 7.03-15.64 15.65-15.64 8.63 0 15.65 7.02 15.65 15.64zM56 122v-6h-6v6zm0 13v-7h-6v7z"/></svg>