<svg xmlns="http://www.w3.org/2000/svg" width="226" height="227" viewBox="0 0 226 227"><path fill="#69a9ec" d="M215.03 14.65H182.1V0H45.26L0 46.08V227h182.1V87.87h32.93A11 11 0 0 0 226 76.89V25.63c0-6.06-4.92-10.98-10.97-10.98zM43.12 7.08v36.86H6.3zm136.32 212.6H2.67V47.38H45.8V2.67h133.65v11.98H83.35a10.99 10.99 0 0 0-10.97 10.98v51.26a11 11 0 0 0 10.97 10.98h96.09zm39.25-142.79a3.67 3.67 0 0 1-3.66 3.66H83.35a3.67 3.67 0 0 1-3.66-3.66V25.63a3.66 3.66 0 0 1 3.66-3.66h131.68a3.66 3.66 0 0 1 3.66 3.66zm-107.9-47.6H87v43.94h7.31V54.92h16.46a12.82 12.82 0 0 0 0-25.63zm0 18.31H94.31V36.61h16.46a5.5 5.5 0 0 1 0 10.99zM21 66v-7h-7v7zm15 0v-7h-7v7zM21 81v-8h-7v8zm124.53-51.71H130.9v43.94h14.63a21.98 21.98 0 0 0 0-43.94zm0 36.61h-7.31V36.61h7.31a14.65 14.65 0 0 1 0 29.29zm29.26 7.33h7.32V54.92h21.94V47.6h-21.94V36.61h29.26v-7.32h-36.58zM94 198v-8h-7v8zm15 0v-8h-7v8zm-29 0v-8h-8v8z"/></svg>